<mxfile host="app.diagrams.net" agent="Mozilla/5.0 (X11; Linux x86_64) AppleWebKit/537.36 (KHTML, like Gecko) Chrome/132.0.0.0 Safari/537.36" version="26.1.1">
  <diagram name="Σελίδα-1" id="tUFHNK6FRsGTnAo6xCgG">
    <mxGraphModel dx="1766" dy="1844" grid="0" gridSize="10" guides="1" tooltips="1" connect="1" arrows="1" fold="1" page="0" pageScale="1" pageWidth="827" pageHeight="1169" math="0" shadow="0">
      <root>
        <mxCell id="0" />
        <mxCell id="1" parent="0" />
        <mxCell id="kR6YiugQy_GHJ83owY4M-6" value="Calculate and Display Route - Activity Diagram" style="shape=umlFrame;whiteSpace=wrap;html=1;pointerEvents=0;recursiveResize=0;container=1;collapsible=0;width=257;height=34;" parent="1" vertex="1">
          <mxGeometry x="-295" y="-350" width="944" height="1629" as="geometry" />
        </mxCell>
        <mxCell id="vHgR3sTV_HwAixPCrvOR-11" value="Background Loop" style="shape=folder;align=center;verticalAlign=middle;fontStyle=0;tabWidth=116;tabHeight=26;tabPosition=left;html=1;boundedLbl=1;labelInHeader=1;rounded=1;absoluteArcSize=1;arcSize=10;whiteSpace=wrap;" vertex="1" parent="kR6YiugQy_GHJ83owY4M-6">
          <mxGeometry x="373.5" y="1113" width="305" height="313" as="geometry" />
        </mxCell>
        <mxCell id="kR6YiugQy_GHJ83owY4M-173" value="System" style="shape=folder;align=center;verticalAlign=middle;fontStyle=0;tabWidth=100;tabHeight=30;tabPosition=left;html=1;boundedLbl=1;labelInHeader=1;rounded=1;absoluteArcSize=1;arcSize=10;whiteSpace=wrap;" parent="kR6YiugQy_GHJ83owY4M-6" vertex="1">
          <mxGeometry x="286" y="453" width="503" height="103" as="geometry" />
        </mxCell>
        <mxCell id="kR6YiugQy_GHJ83owY4M-166" value="User" style="shape=folder;align=center;verticalAlign=middle;fontStyle=0;tabWidth=100;tabHeight=30;tabPosition=left;html=1;boundedLbl=1;labelInHeader=1;rounded=1;absoluteArcSize=1;arcSize=10;whiteSpace=wrap;" parent="kR6YiugQy_GHJ83owY4M-6" vertex="1">
          <mxGeometry x="419" y="123" width="336" height="308" as="geometry" />
        </mxCell>
        <mxCell id="kR6YiugQy_GHJ83owY4M-123" value="No" style="text;html=1;align=center;verticalAlign=middle;whiteSpace=wrap;rounded=0;" parent="kR6YiugQy_GHJ83owY4M-6" vertex="1">
          <mxGeometry x="530.25" y="1220.5" width="60" height="30" as="geometry" />
        </mxCell>
        <mxCell id="kR6YiugQy_GHJ83owY4M-106" value="User" style="shape=folder;align=center;verticalAlign=middle;fontStyle=0;tabWidth=100;tabHeight=30;tabPosition=left;html=1;boundedLbl=1;labelInHeader=1;rounded=1;absoluteArcSize=1;arcSize=10;whiteSpace=wrap;" parent="kR6YiugQy_GHJ83owY4M-6" vertex="1">
          <mxGeometry x="297.5" y="608" width="495" height="344" as="geometry" />
        </mxCell>
        <mxCell id="kR6YiugQy_GHJ83owY4M-72" value="System" style="shape=folder;align=center;verticalAlign=middle;fontStyle=0;tabWidth=100;tabHeight=30;tabPosition=left;html=1;boundedLbl=1;labelInHeader=1;rounded=1;absoluteArcSize=1;arcSize=10;whiteSpace=wrap;" parent="kR6YiugQy_GHJ83owY4M-6" vertex="1">
          <mxGeometry x="68" y="1015" width="255" height="491" as="geometry" />
        </mxCell>
        <mxCell id="S0jq40NQi5oTpdrNzM0y-2" style="edgeStyle=orthogonalEdgeStyle;rounded=0;orthogonalLoop=1;jettySize=auto;html=1;exitX=0.5;exitY=1;exitDx=0;exitDy=0;entryX=0.801;entryY=-0.028;entryDx=0;entryDy=0;entryPerimeter=0;" parent="kR6YiugQy_GHJ83owY4M-6" source="kR6YiugQy_GHJ83owY4M-37" target="kR6YiugQy_GHJ83owY4M-66" edge="1">
          <mxGeometry relative="1" as="geometry">
            <mxPoint x="525" y="173" as="targetPoint" />
          </mxGeometry>
        </mxCell>
        <mxCell id="kR6YiugQy_GHJ83owY4M-37" value="" style="ellipse;fillColor=#000000;strokeColor=none;" parent="kR6YiugQy_GHJ83owY4M-6" vertex="1">
          <mxGeometry x="516" y="63" width="20" height="20" as="geometry" />
        </mxCell>
        <mxCell id="S0jq40NQi5oTpdrNzM0y-1" style="edgeStyle=orthogonalEdgeStyle;rounded=0;orthogonalLoop=1;jettySize=auto;html=1;exitX=0.5;exitY=1;exitDx=0;exitDy=0;entryX=0.5;entryY=0;entryDx=0;entryDy=0;" parent="kR6YiugQy_GHJ83owY4M-6" source="kR6YiugQy_GHJ83owY4M-66" target="kR6YiugQy_GHJ83owY4M-189" edge="1">
          <mxGeometry relative="1" as="geometry" />
        </mxCell>
        <mxCell id="kR6YiugQy_GHJ83owY4M-66" value="Select&lt;div&gt;destination&lt;/div&gt;" style="html=1;align=center;verticalAlign=top;rounded=1;absoluteArcSize=1;arcSize=10;dashed=0;whiteSpace=wrap;" parent="kR6YiugQy_GHJ83owY4M-6" vertex="1">
          <mxGeometry x="456" y="174" width="87" height="43" as="geometry" />
        </mxCell>
        <mxCell id="kR6YiugQy_GHJ83owY4M-73" style="edgeStyle=orthogonalEdgeStyle;rounded=0;orthogonalLoop=1;jettySize=auto;html=1;exitX=0.5;exitY=1;exitDx=0;exitDy=0;fontSize=12;startSize=8;endSize=8;entryX=0.75;entryY=0;entryDx=0;entryDy=0;" parent="kR6YiugQy_GHJ83owY4M-6" source="kR6YiugQy_GHJ83owY4M-68" target="kR6YiugQy_GHJ83owY4M-70" edge="1">
          <mxGeometry relative="1" as="geometry">
            <Array as="points">
              <mxPoint x="380" y="970" />
              <mxPoint x="270" y="970" />
            </Array>
          </mxGeometry>
        </mxCell>
        <mxCell id="kR6YiugQy_GHJ83owY4M-68" value="Start Navigation" style="html=1;align=center;verticalAlign=top;rounded=1;absoluteArcSize=1;arcSize=10;dashed=0;whiteSpace=wrap;" parent="kR6YiugQy_GHJ83owY4M-6" vertex="1">
          <mxGeometry x="309.5" y="792" width="140" height="40" as="geometry" />
        </mxCell>
        <mxCell id="kR6YiugQy_GHJ83owY4M-70" value="Calculate route to destination" style="html=1;align=center;verticalAlign=top;rounded=1;absoluteArcSize=1;arcSize=10;dashed=0;whiteSpace=wrap;" parent="kR6YiugQy_GHJ83owY4M-6" vertex="1">
          <mxGeometry x="187" y="1061" width="110" height="40" as="geometry" />
        </mxCell>
        <mxCell id="kR6YiugQy_GHJ83owY4M-77" style="edgeStyle=none;curved=1;rounded=0;orthogonalLoop=1;jettySize=auto;html=1;exitX=0.5;exitY=1;exitDx=0;exitDy=0;entryX=0.5;entryY=0;entryDx=0;entryDy=0;fontSize=12;startSize=8;endSize=8;" parent="kR6YiugQy_GHJ83owY4M-6" source="kR6YiugQy_GHJ83owY4M-74" target="kR6YiugQy_GHJ83owY4M-75" edge="1">
          <mxGeometry relative="1" as="geometry" />
        </mxCell>
        <mxCell id="kR6YiugQy_GHJ83owY4M-74" value="Calculate arival&lt;div&gt;time&lt;/div&gt;" style="html=1;align=center;verticalAlign=top;rounded=1;absoluteArcSize=1;arcSize=10;dashed=0;whiteSpace=wrap;" parent="kR6YiugQy_GHJ83owY4M-6" vertex="1">
          <mxGeometry x="187" y="1360" width="110" height="40" as="geometry" />
        </mxCell>
        <mxCell id="vHgR3sTV_HwAixPCrvOR-29" style="edgeStyle=orthogonalEdgeStyle;rounded=0;orthogonalLoop=1;jettySize=auto;html=1;exitX=0.5;exitY=1;exitDx=0;exitDy=0;entryX=0.5;entryY=0;entryDx=0;entryDy=0;" edge="1" parent="kR6YiugQy_GHJ83owY4M-6" source="kR6YiugQy_GHJ83owY4M-75" target="vHgR3sTV_HwAixPCrvOR-27">
          <mxGeometry relative="1" as="geometry" />
        </mxCell>
        <mxCell id="kR6YiugQy_GHJ83owY4M-75" value="Display calculated route and arrival time" style="html=1;align=center;verticalAlign=top;rounded=1;absoluteArcSize=1;arcSize=10;dashed=0;whiteSpace=wrap;" parent="kR6YiugQy_GHJ83owY4M-6" vertex="1">
          <mxGeometry x="183.5" y="1425" width="117" height="42" as="geometry" />
        </mxCell>
        <mxCell id="kR6YiugQy_GHJ83owY4M-90" style="edgeStyle=none;curved=1;rounded=0;orthogonalLoop=1;jettySize=auto;html=1;exitX=0;exitY=0.5;exitDx=0;exitDy=0;entryX=0.5;entryY=0;entryDx=0;entryDy=0;fontSize=12;startSize=8;endSize=8;" parent="kR6YiugQy_GHJ83owY4M-6" source="kR6YiugQy_GHJ83owY4M-79" target="kR6YiugQy_GHJ83owY4M-68" edge="1">
          <mxGeometry relative="1" as="geometry">
            <Array as="points">
              <mxPoint x="371.5" y="689" />
            </Array>
          </mxGeometry>
        </mxCell>
        <mxCell id="kR6YiugQy_GHJ83owY4M-95" style="edgeStyle=none;curved=1;rounded=0;orthogonalLoop=1;jettySize=auto;html=1;exitX=1;exitY=0.5;exitDx=0;exitDy=0;entryX=0.5;entryY=0;entryDx=0;entryDy=0;fontSize=12;startSize=8;endSize=8;" parent="kR6YiugQy_GHJ83owY4M-6" source="kR6YiugQy_GHJ83owY4M-79" target="kR6YiugQy_GHJ83owY4M-93" edge="1">
          <mxGeometry relative="1" as="geometry">
            <Array as="points">
              <mxPoint x="710.5" y="690" />
            </Array>
          </mxGeometry>
        </mxCell>
        <mxCell id="kR6YiugQy_GHJ83owY4M-79" value="" style="rhombus;" parent="kR6YiugQy_GHJ83owY4M-6" vertex="1">
          <mxGeometry x="502.5" y="652" width="74" height="75" as="geometry" />
        </mxCell>
        <mxCell id="kR6YiugQy_GHJ83owY4M-84" value="No" style="text;html=1;align=center;verticalAlign=middle;whiteSpace=wrap;rounded=0;" parent="kR6YiugQy_GHJ83owY4M-6" vertex="1">
          <mxGeometry x="402.5" y="705" width="60" height="30" as="geometry" />
        </mxCell>
        <mxCell id="kR6YiugQy_GHJ83owY4M-91" value="Add stops to route?" style="text;html=1;align=center;verticalAlign=middle;whiteSpace=wrap;rounded=0;" parent="kR6YiugQy_GHJ83owY4M-6" vertex="1">
          <mxGeometry x="515.5" y="676" width="48" height="29" as="geometry" />
        </mxCell>
        <mxCell id="kR6YiugQy_GHJ83owY4M-103" style="edgeStyle=none;curved=1;rounded=0;orthogonalLoop=1;jettySize=auto;html=1;exitX=0.5;exitY=1;exitDx=0;exitDy=0;entryX=0.5;entryY=0;entryDx=0;entryDy=0;fontSize=12;startSize=8;endSize=8;" parent="kR6YiugQy_GHJ83owY4M-6" source="kR6YiugQy_GHJ83owY4M-93" target="kR6YiugQy_GHJ83owY4M-100" edge="1">
          <mxGeometry relative="1" as="geometry" />
        </mxCell>
        <mxCell id="kR6YiugQy_GHJ83owY4M-93" value="Add new stop&lt;div&gt;to the route&lt;/div&gt;" style="html=1;align=center;verticalAlign=top;rounded=1;absoluteArcSize=1;arcSize=10;dashed=0;whiteSpace=wrap;" parent="kR6YiugQy_GHJ83owY4M-6" vertex="1">
          <mxGeometry x="640.5" y="792" width="140" height="40" as="geometry" />
        </mxCell>
        <mxCell id="kR6YiugQy_GHJ83owY4M-96" value="Yes" style="text;html=1;align=center;verticalAlign=middle;whiteSpace=wrap;rounded=0;" parent="kR6YiugQy_GHJ83owY4M-6" vertex="1">
          <mxGeometry x="631.5" y="710" width="60" height="30" as="geometry" />
        </mxCell>
        <mxCell id="kR6YiugQy_GHJ83owY4M-102" style="edgeStyle=none;curved=1;rounded=0;orthogonalLoop=1;jettySize=auto;html=1;exitX=0;exitY=0.5;exitDx=0;exitDy=0;entryX=0.5;entryY=1;entryDx=0;entryDy=0;fontSize=12;startSize=8;endSize=8;" parent="kR6YiugQy_GHJ83owY4M-6" source="kR6YiugQy_GHJ83owY4M-100" target="kR6YiugQy_GHJ83owY4M-79" edge="1">
          <mxGeometry relative="1" as="geometry">
            <Array as="points">
              <mxPoint x="542.5" y="893" />
            </Array>
          </mxGeometry>
        </mxCell>
        <mxCell id="kR6YiugQy_GHJ83owY4M-113" style="edgeStyle=orthogonalEdgeStyle;rounded=0;orthogonalLoop=1;jettySize=auto;html=1;exitX=0.5;exitY=1;exitDx=0;exitDy=0;fontSize=12;startSize=8;endSize=8;" parent="kR6YiugQy_GHJ83owY4M-6" source="kR6YiugQy_GHJ83owY4M-100" target="kR6YiugQy_GHJ83owY4M-107" edge="1">
          <mxGeometry relative="1" as="geometry" />
        </mxCell>
        <mxCell id="kR6YiugQy_GHJ83owY4M-100" value="" style="rhombus;" parent="kR6YiugQy_GHJ83owY4M-6" vertex="1">
          <mxGeometry x="673.5" y="861" width="74" height="75" as="geometry" />
        </mxCell>
        <mxCell id="kR6YiugQy_GHJ83owY4M-101" value="Add more stops?" style="text;html=1;align=center;verticalAlign=middle;whiteSpace=wrap;rounded=0;" parent="kR6YiugQy_GHJ83owY4M-6" vertex="1">
          <mxGeometry x="686.5" y="884" width="48" height="29" as="geometry" />
        </mxCell>
        <mxCell id="kR6YiugQy_GHJ83owY4M-105" value="Yes" style="text;html=1;align=center;verticalAlign=middle;whiteSpace=wrap;rounded=0;" parent="kR6YiugQy_GHJ83owY4M-6" vertex="1">
          <mxGeometry x="613.5" y="872" width="60" height="30" as="geometry" />
        </mxCell>
        <mxCell id="kR6YiugQy_GHJ83owY4M-114" style="edgeStyle=none;curved=1;rounded=0;orthogonalLoop=1;jettySize=auto;html=1;exitX=0;exitY=0;exitDx=0;exitDy=93.5;exitPerimeter=0;entryX=1;entryY=0.5;entryDx=0;entryDy=0;fontSize=12;startSize=8;endSize=8;" parent="kR6YiugQy_GHJ83owY4M-6" source="kR6YiugQy_GHJ83owY4M-107" target="kR6YiugQy_GHJ83owY4M-68" edge="1">
          <mxGeometry relative="1" as="geometry">
            <Array as="points">
              <mxPoint x="538" y="1105" />
              <mxPoint x="525" y="812" />
            </Array>
          </mxGeometry>
        </mxCell>
        <mxCell id="kR6YiugQy_GHJ83owY4M-107" value="System" style="shape=folder;align=center;verticalAlign=middle;fontStyle=0;tabWidth=100;tabHeight=30;tabPosition=left;html=1;boundedLbl=1;labelInHeader=1;rounded=1;absoluteArcSize=1;arcSize=10;whiteSpace=wrap;" parent="kR6YiugQy_GHJ83owY4M-6" vertex="1">
          <mxGeometry x="699" y="1015" width="162" height="157" as="geometry" />
        </mxCell>
        <mxCell id="kR6YiugQy_GHJ83owY4M-109" value="Suggest the optimal order to visit destinations based on time, distance and&lt;div&gt;overcrowdedness&lt;/div&gt;" style="html=1;align=center;verticalAlign=top;rounded=1;absoluteArcSize=1;arcSize=10;dashed=0;whiteSpace=wrap;" parent="kR6YiugQy_GHJ83owY4M-6" vertex="1">
          <mxGeometry x="719" y="1062" width="122" height="90" as="geometry" />
        </mxCell>
        <mxCell id="kR6YiugQy_GHJ83owY4M-127" style="edgeStyle=orthogonalEdgeStyle;rounded=0;orthogonalLoop=1;jettySize=auto;html=1;exitX=1;exitY=0.5;exitDx=0;exitDy=0;entryX=1;entryY=0.5;entryDx=0;entryDy=0;fontSize=12;startSize=8;endSize=8;" parent="kR6YiugQy_GHJ83owY4M-6" source="kR6YiugQy_GHJ83owY4M-130" target="kR6YiugQy_GHJ83owY4M-37" edge="1">
          <mxGeometry relative="1" as="geometry">
            <Array as="points">
              <mxPoint x="886" y="1351" />
              <mxPoint x="886" y="73" />
            </Array>
          </mxGeometry>
        </mxCell>
        <mxCell id="kR6YiugQy_GHJ83owY4M-131" style="edgeStyle=none;curved=1;rounded=0;orthogonalLoop=1;jettySize=auto;html=1;exitX=0.5;exitY=1;exitDx=0;exitDy=0;entryX=0.5;entryY=0;entryDx=0;entryDy=0;fontSize=12;startSize=8;endSize=8;" parent="kR6YiugQy_GHJ83owY4M-6" source="kR6YiugQy_GHJ83owY4M-117" target="kR6YiugQy_GHJ83owY4M-130" edge="1">
          <mxGeometry relative="1" as="geometry" />
        </mxCell>
        <mxCell id="kR6YiugQy_GHJ83owY4M-117" value="Cancel&#xa;Navigation?" style="rhombus;" parent="kR6YiugQy_GHJ83owY4M-6" vertex="1">
          <mxGeometry x="566.75" y="1205" width="91" height="87" as="geometry" />
        </mxCell>
        <mxCell id="kR6YiugQy_GHJ83owY4M-128" value="Yes" style="text;html=1;align=center;verticalAlign=middle;whiteSpace=wrap;rounded=0;" parent="kR6YiugQy_GHJ83owY4M-6" vertex="1">
          <mxGeometry x="595.75" y="1293.5" width="60" height="30" as="geometry" />
        </mxCell>
        <mxCell id="kR6YiugQy_GHJ83owY4M-129" style="edgeStyle=orthogonalEdgeStyle;rounded=0;orthogonalLoop=1;jettySize=auto;html=1;exitX=0;exitY=0.5;exitDx=0;exitDy=0;entryX=0.5;entryY=0;entryDx=0;entryDy=0;fontSize=12;startSize=8;endSize=8;" parent="kR6YiugQy_GHJ83owY4M-6" source="kR6YiugQy_GHJ83owY4M-117" target="kR6YiugQy_GHJ83owY4M-117" edge="1">
          <mxGeometry relative="1" as="geometry">
            <Array as="points">
              <mxPoint x="547.25" y="1248.5" />
              <mxPoint x="547.25" y="1184.5" />
              <mxPoint x="612.25" y="1184.5" />
            </Array>
          </mxGeometry>
        </mxCell>
        <mxCell id="kR6YiugQy_GHJ83owY4M-130" value="Route is removed from the map" style="html=1;align=center;verticalAlign=top;rounded=1;absoluteArcSize=1;arcSize=10;dashed=0;whiteSpace=wrap;" parent="kR6YiugQy_GHJ83owY4M-6" vertex="1">
          <mxGeometry x="561.75" y="1330.5" width="101" height="40" as="geometry" />
        </mxCell>
        <mxCell id="kR6YiugQy_GHJ83owY4M-182" style="edgeStyle=none;curved=1;rounded=0;orthogonalLoop=1;jettySize=auto;html=1;exitX=1;exitY=0.5;exitDx=0;exitDy=0;entryX=0;entryY=0.5;entryDx=0;entryDy=0;fontSize=12;startSize=8;endSize=8;" parent="kR6YiugQy_GHJ83owY4M-6" source="kR6YiugQy_GHJ83owY4M-134" target="kR6YiugQy_GHJ83owY4M-181" edge="1">
          <mxGeometry relative="1" as="geometry" />
        </mxCell>
        <mxCell id="kR6YiugQy_GHJ83owY4M-134" value="Start from&#xa;current&#xa;location?" style="rhombus;" parent="kR6YiugQy_GHJ83owY4M-6" vertex="1">
          <mxGeometry x="442" y="335" width="115" height="75" as="geometry" />
        </mxCell>
        <mxCell id="kR6YiugQy_GHJ83owY4M-169" value="Starting location is set to current location" style="html=1;align=center;verticalAlign=top;rounded=1;absoluteArcSize=1;arcSize=10;dashed=0;whiteSpace=wrap;" parent="kR6YiugQy_GHJ83owY4M-6" vertex="1">
          <mxGeometry x="331" y="500" width="140" height="40" as="geometry" />
        </mxCell>
        <mxCell id="kR6YiugQy_GHJ83owY4M-174" style="edgeStyle=orthogonalEdgeStyle;rounded=0;orthogonalLoop=1;jettySize=auto;html=1;exitX=0;exitY=0.5;exitDx=0;exitDy=0;entryX=0.5;entryY=0;entryDx=0;entryDy=0;fontSize=12;startSize=8;endSize=8;" parent="kR6YiugQy_GHJ83owY4M-6" source="kR6YiugQy_GHJ83owY4M-134" target="kR6YiugQy_GHJ83owY4M-169" edge="1">
          <mxGeometry relative="1" as="geometry" />
        </mxCell>
        <mxCell id="kR6YiugQy_GHJ83owY4M-176" value="Starting location is set to&lt;div&gt;selected location&lt;/div&gt;" style="html=1;align=center;verticalAlign=top;rounded=1;absoluteArcSize=1;arcSize=10;dashed=0;whiteSpace=wrap;" parent="kR6YiugQy_GHJ83owY4M-6" vertex="1">
          <mxGeometry x="619" y="500" width="140" height="40" as="geometry" />
        </mxCell>
        <mxCell id="kR6YiugQy_GHJ83owY4M-181" value="Starting location&lt;div&gt;is selected&lt;/div&gt;" style="html=1;align=center;verticalAlign=top;rounded=1;absoluteArcSize=1;arcSize=10;dashed=0;whiteSpace=wrap;" parent="kR6YiugQy_GHJ83owY4M-6" vertex="1">
          <mxGeometry x="637.5" y="352.5" width="104.5" height="40" as="geometry" />
        </mxCell>
        <mxCell id="kR6YiugQy_GHJ83owY4M-183" value="Yes" style="text;html=1;align=center;verticalAlign=middle;whiteSpace=wrap;rounded=0;" parent="kR6YiugQy_GHJ83owY4M-6" vertex="1">
          <mxGeometry x="402.5" y="347" width="60" height="30" as="geometry" />
        </mxCell>
        <mxCell id="kR6YiugQy_GHJ83owY4M-184" value="No" style="text;html=1;align=center;verticalAlign=middle;whiteSpace=wrap;rounded=0;" parent="kR6YiugQy_GHJ83owY4M-6" vertex="1">
          <mxGeometry x="533" y="347" width="60" height="30" as="geometry" />
        </mxCell>
        <mxCell id="kR6YiugQy_GHJ83owY4M-185" style="edgeStyle=none;curved=1;rounded=0;orthogonalLoop=1;jettySize=auto;html=1;exitX=0.5;exitY=1;exitDx=0;exitDy=0;fontSize=12;startSize=8;endSize=8;entryX=0.5;entryY=0;entryDx=0;entryDy=0;" parent="kR6YiugQy_GHJ83owY4M-6" source="kR6YiugQy_GHJ83owY4M-181" target="kR6YiugQy_GHJ83owY4M-176" edge="1">
          <mxGeometry relative="1" as="geometry">
            <mxPoint x="673" y="341" as="targetPoint" />
          </mxGeometry>
        </mxCell>
        <mxCell id="kR6YiugQy_GHJ83owY4M-187" style="edgeStyle=none;curved=1;rounded=0;orthogonalLoop=1;jettySize=auto;html=1;exitX=0.5;exitY=1;exitDx=0;exitDy=0;exitPerimeter=0;fontSize=12;startSize=8;endSize=8;entryX=0.5;entryY=0;entryDx=0;entryDy=0;" parent="kR6YiugQy_GHJ83owY4M-6" source="kR6YiugQy_GHJ83owY4M-173" target="kR6YiugQy_GHJ83owY4M-79" edge="1">
          <mxGeometry relative="1" as="geometry" />
        </mxCell>
        <mxCell id="kR6YiugQy_GHJ83owY4M-190" style="edgeStyle=none;curved=1;rounded=0;orthogonalLoop=1;jettySize=auto;html=1;exitX=0.5;exitY=1;exitDx=0;exitDy=0;entryX=0.5;entryY=0;entryDx=0;entryDy=0;fontSize=12;startSize=8;endSize=8;" parent="kR6YiugQy_GHJ83owY4M-6" source="kR6YiugQy_GHJ83owY4M-189" target="kR6YiugQy_GHJ83owY4M-134" edge="1">
          <mxGeometry relative="1" as="geometry" />
        </mxCell>
        <mxCell id="kR6YiugQy_GHJ83owY4M-203" style="edgeStyle=orthogonalEdgeStyle;rounded=0;orthogonalLoop=1;jettySize=auto;html=1;exitX=0.5;exitY=1;exitDx=0;exitDy=0;exitPerimeter=0;entryX=0;entryY=0.5;entryDx=0;entryDy=0;fontSize=12;startSize=8;endSize=8;" parent="kR6YiugQy_GHJ83owY4M-6" source="kR6YiugQy_GHJ83owY4M-193" target="kR6YiugQy_GHJ83owY4M-66" edge="1">
          <mxGeometry relative="1" as="geometry">
            <Array as="points">
              <mxPoint x="276" y="361" />
              <mxPoint x="276" y="376" />
              <mxPoint x="176" y="376" />
              <mxPoint x="176" y="195" />
            </Array>
          </mxGeometry>
        </mxCell>
        <mxCell id="kR6YiugQy_GHJ83owY4M-193" value="System" style="shape=folder;align=center;verticalAlign=middle;fontStyle=0;tabWidth=100;tabHeight=30;tabPosition=left;html=1;boundedLbl=1;labelInHeader=1;rounded=1;absoluteArcSize=1;arcSize=10;whiteSpace=wrap;" parent="kR6YiugQy_GHJ83owY4M-6" vertex="1">
          <mxGeometry x="205" y="207" width="162" height="215" as="geometry" />
        </mxCell>
        <mxCell id="kR6YiugQy_GHJ83owY4M-194" value="Notify that no route is available" style="html=1;align=center;verticalAlign=top;rounded=1;absoluteArcSize=1;arcSize=10;dashed=0;whiteSpace=wrap;" parent="kR6YiugQy_GHJ83owY4M-6" vertex="1">
          <mxGeometry x="229" y="246" width="110" height="41" as="geometry" />
        </mxCell>
        <mxCell id="kR6YiugQy_GHJ83owY4M-196" value="Suggest an alternative destination" style="html=1;align=center;verticalAlign=top;rounded=1;absoluteArcSize=1;arcSize=10;dashed=0;whiteSpace=wrap;" parent="kR6YiugQy_GHJ83owY4M-6" vertex="1">
          <mxGeometry x="229" y="299" width="111" height="54" as="geometry" />
        </mxCell>
        <mxCell id="kR6YiugQy_GHJ83owY4M-197" value="Suggest different visiting times" style="html=1;align=center;verticalAlign=top;rounded=1;absoluteArcSize=1;arcSize=10;dashed=0;whiteSpace=wrap;" parent="kR6YiugQy_GHJ83owY4M-6" vertex="1">
          <mxGeometry x="229" y="365" width="110" height="41" as="geometry" />
        </mxCell>
        <mxCell id="kR6YiugQy_GHJ83owY4M-199" value="Yes" style="text;html=1;align=center;verticalAlign=middle;whiteSpace=wrap;rounded=0;" parent="kR6YiugQy_GHJ83owY4M-6" vertex="1">
          <mxGeometry x="483" y="294" width="60" height="30" as="geometry" />
        </mxCell>
        <mxCell id="kR6YiugQy_GHJ83owY4M-200" value="No" style="text;html=1;align=center;verticalAlign=middle;whiteSpace=wrap;rounded=0;" parent="kR6YiugQy_GHJ83owY4M-6" vertex="1">
          <mxGeometry x="411" y="238" width="60" height="30" as="geometry" />
        </mxCell>
        <mxCell id="kR6YiugQy_GHJ83owY4M-189" value="Destination&#xa;accessible?" style="rhombus;" parent="kR6YiugQy_GHJ83owY4M-6" vertex="1">
          <mxGeometry x="444.75" y="238" width="109.5" height="59" as="geometry" />
        </mxCell>
        <mxCell id="kR6YiugQy_GHJ83owY4M-202" style="edgeStyle=orthogonalEdgeStyle;rounded=0;orthogonalLoop=1;jettySize=auto;html=1;exitX=0;exitY=0.5;exitDx=0;exitDy=0;entryX=0;entryY=0;entryDx=162;entryDy=122.5;entryPerimeter=0;fontSize=12;startSize=8;endSize=8;" parent="kR6YiugQy_GHJ83owY4M-6" source="kR6YiugQy_GHJ83owY4M-189" target="kR6YiugQy_GHJ83owY4M-193" edge="1">
          <mxGeometry relative="1" as="geometry" />
        </mxCell>
        <mxCell id="vHgR3sTV_HwAixPCrvOR-2" style="edgeStyle=none;curved=1;rounded=0;orthogonalLoop=1;jettySize=auto;html=1;exitX=0.5;exitY=1;exitDx=0;exitDy=0;entryX=0.5;entryY=0;entryDx=0;entryDy=0;fontSize=12;startSize=8;endSize=8;" edge="1" parent="kR6YiugQy_GHJ83owY4M-6" source="vHgR3sTV_HwAixPCrvOR-3" target="vHgR3sTV_HwAixPCrvOR-6">
          <mxGeometry relative="1" as="geometry" />
        </mxCell>
        <mxCell id="vHgR3sTV_HwAixPCrvOR-1" value="No" style="text;html=1;align=center;verticalAlign=middle;whiteSpace=wrap;rounded=0;" vertex="1" parent="kR6YiugQy_GHJ83owY4M-6">
          <mxGeometry x="149" y="1136" width="60" height="30" as="geometry" />
        </mxCell>
        <mxCell id="vHgR3sTV_HwAixPCrvOR-10" style="edgeStyle=orthogonalEdgeStyle;rounded=0;orthogonalLoop=1;jettySize=auto;html=1;exitX=0;exitY=0.5;exitDx=0;exitDy=0;entryX=0;entryY=0.5;entryDx=0;entryDy=0;" edge="1" parent="kR6YiugQy_GHJ83owY4M-6" source="vHgR3sTV_HwAixPCrvOR-3" target="vHgR3sTV_HwAixPCrvOR-8">
          <mxGeometry relative="1" as="geometry" />
        </mxCell>
        <mxCell id="vHgR3sTV_HwAixPCrvOR-3" value="GPS Signal&#xa;Lost?" style="rhombus;" vertex="1" parent="kR6YiugQy_GHJ83owY4M-6">
          <mxGeometry x="416.5" y="1223.5" width="91" height="87" as="geometry" />
        </mxCell>
        <mxCell id="vHgR3sTV_HwAixPCrvOR-4" value="Yes" style="text;html=1;align=center;verticalAlign=middle;whiteSpace=wrap;rounded=0;" vertex="1" parent="kR6YiugQy_GHJ83owY4M-6">
          <mxGeometry x="445.5" y="1312" width="60" height="30" as="geometry" />
        </mxCell>
        <mxCell id="vHgR3sTV_HwAixPCrvOR-7" style="edgeStyle=orthogonalEdgeStyle;rounded=0;orthogonalLoop=1;jettySize=auto;html=1;exitX=1;exitY=0.5;exitDx=0;exitDy=0;entryX=1;entryY=0.5;entryDx=0;entryDy=0;" edge="1" parent="kR6YiugQy_GHJ83owY4M-6" source="vHgR3sTV_HwAixPCrvOR-6" target="vHgR3sTV_HwAixPCrvOR-3">
          <mxGeometry relative="1" as="geometry" />
        </mxCell>
        <mxCell id="vHgR3sTV_HwAixPCrvOR-6" value="Pause&lt;div&gt;navigation&lt;/div&gt;" style="html=1;align=center;verticalAlign=top;rounded=1;absoluteArcSize=1;arcSize=10;dashed=0;whiteSpace=wrap;" vertex="1" parent="kR6YiugQy_GHJ83owY4M-6">
          <mxGeometry x="411.5" y="1349" width="101" height="40" as="geometry" />
        </mxCell>
        <mxCell id="vHgR3sTV_HwAixPCrvOR-9" style="edgeStyle=orthogonalEdgeStyle;rounded=0;orthogonalLoop=1;jettySize=auto;html=1;exitX=0.5;exitY=1;exitDx=0;exitDy=0;entryX=0.5;entryY=0;entryDx=0;entryDy=0;" edge="1" parent="kR6YiugQy_GHJ83owY4M-6" source="vHgR3sTV_HwAixPCrvOR-8" target="vHgR3sTV_HwAixPCrvOR-3">
          <mxGeometry relative="1" as="geometry" />
        </mxCell>
        <mxCell id="vHgR3sTV_HwAixPCrvOR-8" value="Continue&lt;div&gt;navigation&lt;/div&gt;" style="html=1;align=center;verticalAlign=top;rounded=1;absoluteArcSize=1;arcSize=10;dashed=0;whiteSpace=wrap;" vertex="1" parent="kR6YiugQy_GHJ83owY4M-6">
          <mxGeometry x="411.5" y="1158" width="101" height="39" as="geometry" />
        </mxCell>
        <mxCell id="vHgR3sTV_HwAixPCrvOR-13" value="&amp;nbsp; &amp;nbsp;&amp;lt; 5 secs" style="html=1;shape=mxgraph.infographic.ribbonSimple;notch1=20;notch2=0;align=center;verticalAlign=middle;fontSize=14;fontStyle=0;fillColor=#FFFFFF;flipH=0;spacingRight=0;spacingLeft=14;whiteSpace=wrap;" vertex="1" parent="kR6YiugQy_GHJ83owY4M-6">
          <mxGeometry x="264.5" y="1143.5" width="82" height="31" as="geometry" />
        </mxCell>
        <mxCell id="vHgR3sTV_HwAixPCrvOR-14" style="edgeStyle=orthogonalEdgeStyle;rounded=0;orthogonalLoop=1;jettySize=auto;html=1;exitX=0.5;exitY=1;exitDx=0;exitDy=0;entryX=0.5;entryY=0;entryDx=0;entryDy=0;" edge="1" parent="kR6YiugQy_GHJ83owY4M-6" source="vHgR3sTV_HwAixPCrvOR-12" target="kR6YiugQy_GHJ83owY4M-74">
          <mxGeometry relative="1" as="geometry" />
        </mxCell>
        <mxCell id="vHgR3sTV_HwAixPCrvOR-19" style="edgeStyle=orthogonalEdgeStyle;rounded=0;orthogonalLoop=1;jettySize=auto;html=1;exitX=0;exitY=0.5;exitDx=0;exitDy=0;entryX=0.5;entryY=0;entryDx=0;entryDy=0;" edge="1" parent="kR6YiugQy_GHJ83owY4M-6" source="vHgR3sTV_HwAixPCrvOR-12" target="vHgR3sTV_HwAixPCrvOR-16">
          <mxGeometry relative="1" as="geometry" />
        </mxCell>
        <mxCell id="vHgR3sTV_HwAixPCrvOR-12" value="Succesful&lt;div&gt;calculation?&lt;/div&gt;" style="rhombus;whiteSpace=wrap;html=1;" vertex="1" parent="kR6YiugQy_GHJ83owY4M-6">
          <mxGeometry x="196" y="1119" width="92" height="80" as="geometry" />
        </mxCell>
        <mxCell id="vHgR3sTV_HwAixPCrvOR-15" value="Yes" style="text;html=1;align=center;verticalAlign=middle;whiteSpace=wrap;rounded=0;" vertex="1" parent="kR6YiugQy_GHJ83owY4M-6">
          <mxGeometry x="229" y="1197" width="60" height="30" as="geometry" />
        </mxCell>
        <mxCell id="vHgR3sTV_HwAixPCrvOR-18" style="edgeStyle=orthogonalEdgeStyle;rounded=0;orthogonalLoop=1;jettySize=auto;html=1;exitX=0.5;exitY=1;exitDx=0;exitDy=0;entryX=0.5;entryY=0;entryDx=0;entryDy=0;" edge="1" parent="kR6YiugQy_GHJ83owY4M-6" source="vHgR3sTV_HwAixPCrvOR-16" target="vHgR3sTV_HwAixPCrvOR-17">
          <mxGeometry relative="1" as="geometry" />
        </mxCell>
        <mxCell id="vHgR3sTV_HwAixPCrvOR-16" value="Display error message" style="html=1;align=center;verticalAlign=top;rounded=1;absoluteArcSize=1;arcSize=10;dashed=0;whiteSpace=wrap;" vertex="1" parent="kR6YiugQy_GHJ83owY4M-6">
          <mxGeometry x="82.5" y="1184.5" width="101" height="39" as="geometry" />
        </mxCell>
        <mxCell id="vHgR3sTV_HwAixPCrvOR-17" value="Suggest&lt;div&gt;troubleshooting steps&lt;/div&gt;" style="html=1;align=center;verticalAlign=top;rounded=1;absoluteArcSize=1;arcSize=10;dashed=0;whiteSpace=wrap;" vertex="1" parent="kR6YiugQy_GHJ83owY4M-6">
          <mxGeometry x="83" y="1242" width="100.5" height="55" as="geometry" />
        </mxCell>
        <mxCell id="vHgR3sTV_HwAixPCrvOR-25" style="edgeStyle=orthogonalEdgeStyle;rounded=0;orthogonalLoop=1;jettySize=auto;html=1;exitX=0.5;exitY=1;exitDx=0;exitDy=0;entryX=0.25;entryY=0;entryDx=0;entryDy=0;" edge="1" parent="kR6YiugQy_GHJ83owY4M-6" source="vHgR3sTV_HwAixPCrvOR-22" target="kR6YiugQy_GHJ83owY4M-70">
          <mxGeometry relative="1" as="geometry">
            <Array as="points">
              <mxPoint x="136" y="1375" />
              <mxPoint x="46" y="1375" />
              <mxPoint x="46" y="972" />
              <mxPoint x="214" y="972" />
            </Array>
          </mxGeometry>
        </mxCell>
        <mxCell id="vHgR3sTV_HwAixPCrvOR-22" value="Display &quot;Try again&quot; message" style="html=1;align=center;verticalAlign=top;rounded=1;absoluteArcSize=1;arcSize=10;dashed=0;whiteSpace=wrap;" vertex="1" parent="kR6YiugQy_GHJ83owY4M-6">
          <mxGeometry x="86" y="1316" width="101" height="39" as="geometry" />
        </mxCell>
        <mxCell id="vHgR3sTV_HwAixPCrvOR-27" value="" style="ellipse;html=1;shape=endState;fillColor=strokeColor;" vertex="1" parent="kR6YiugQy_GHJ83owY4M-6">
          <mxGeometry x="227" y="1567" width="30" height="30" as="geometry" />
        </mxCell>
      </root>
    </mxGraphModel>
  </diagram>
</mxfile>